<svg width="46" height="44" viewBox="0 0 46 44" fill="none" xmlns="http://www.w3.org/2000/svg">
<path d="M28.007 11.368C25.9514 17.0208 22.8681 27.2986 25.4375 36.5486L26.4653 40.6597H25.4375C25.4375 40.6597 21.8403 32.4375 21.8403 29.868L12.0764 29.868L10.5347 40.6597H9.50696L9.50696 29.868C9.50696 29.868 8.87128 28.813 9.50696 26.2708C10.0208 24.2153 10.4063 24.1999 11.0486 24.2153C13.7491 24.2795 21.8403 24.7292 21.8403 24.7292C21.8403 24.7292 23.107 13.1846 24.9236 11.368C26.4653 9.82638 28.007 11.368 28.007 11.368Z" fill="black"/>
<path d="M24.3651 29.6111L9.25006 29.6111C9.25006 29.6111 8.97564 29.0613 9.76394 25.908C10.2778 23.8525 9.83794 24.094 14.169 24.2302C18.5001 24.3664 21.8403 24.7292 21.8403 24.7292C21.8403 24.7292 22.7936 16.8754 24.1857 12.8953C24.4786 12.0577 25.7757 9.77603 27.7501 11.1111C27.7853 11.2806 27.7853 11.4555 27.7501 11.625C24.7356 20.2696 24.3651 29.6111 24.3651 29.6111Z" fill="#F4431F"/>
<path d="M14.0872 29.6111H9.24999C9.13129 27.6933 9.36305 25.9312 10.2778 24.4722L14.1689 24.2307C14.1689 24.2307 11.8194 28.5833 14.0872 29.6111Z" fill="#F4431F"/>
<circle cx="37" cy="9" r="9" fill="#FF7255"/>
<path d="M38.2031 14H36.75V4.36719L33.8359 5.4375V4.125L37.9766 2.57031H38.2031V14Z" fill="black"/>
</svg>
