<svg width="50" height="24" viewBox="0 0 50 24" fill="none" xmlns="http://www.w3.org/2000/svg">
<path d="M10.5253 17.1428C10.7632 17.1428 10.9988 17.0986 11.2186 17.0124C11.4384 16.9263 11.6381 16.8 11.8063 16.6408C11.9746 16.4817 12.108 16.2927 12.1991 16.0847C12.2901 15.8767 12.337 15.6538 12.337 15.4287C12.337 12.246 13.673 9.19375 16.0512 6.94329C18.4293 4.69283 21.6549 3.42853 25.0181 3.42853C28.3813 3.42853 31.6069 4.69283 33.985 6.94329C36.3632 9.19375 37.6992 12.246 37.6992 15.4287C37.7039 15.8803 37.8969 16.312 38.2362 16.6298C38.5753 16.9476 39.0334 17.1259 39.5109 17.1259C39.9881 17.1259 40.4462 16.9476 40.7854 16.6298C41.1246 16.312 41.3176 15.8803 41.3223 15.4287C41.3223 13.4025 40.9006 11.3963 40.0813 9.52437C39.2618 7.65248 38.0609 5.95163 36.547 4.51895C35.0328 3.08626 33.2355 1.9498 31.2575 1.17444C29.2793 0.399073 27.1593 0 25.0181 0C22.8769 0 20.7569 0.399073 18.7787 1.17444C16.8006 1.9498 15.0032 3.08626 13.4893 4.51895C11.9753 5.95163 10.7743 7.65248 9.95494 9.52437C9.13559 11.3963 8.71387 13.4025 8.71387 15.4287C8.71387 15.8833 8.90472 16.3193 9.24443 16.6408C9.58415 16.9622 10.0449 17.1428 10.5253 17.1428Z" fill="url(#paint0_linear)"/>
<path d="M48.2064 20.5714H32.2585C33.4393 19.0899 34.077 17.2844 34.075 15.4287C34.075 13.1553 33.1207 10.9752 31.422 9.36768C29.7233 7.76021 27.4193 6.85715 25.017 6.85715C22.6149 6.85715 20.3109 7.76021 18.6122 9.36768C16.9135 10.9752 15.9592 13.1553 15.9592 15.4287C15.9592 15.8833 16.15 16.3194 16.4898 16.6409C16.8295 16.9624 17.2903 17.143 17.7708 17.143C18.2513 17.143 18.7122 16.9624 19.0518 16.6409C19.3916 16.3194 19.5824 15.8833 19.5824 15.4287C19.5824 14.4115 19.9011 13.4171 20.4983 12.5714C21.0955 11.7256 21.9443 11.0664 22.9373 10.6771C23.9304 10.2878 25.0232 10.186 26.0774 10.3844C27.1316 10.5828 28.1001 11.0726 28.86 11.7919C29.6202 12.5111 30.1378 13.4275 30.3476 14.4251C30.5572 15.4227 30.4496 16.4568 30.0383 17.3965C29.6269 18.3362 28.9304 19.1396 28.0366 19.7047C27.1428 20.2698 26.092 20.5714 25.0172 20.5714H1.82974C1.59032 20.5691 1.3528 20.6118 1.13092 20.697C0.90903 20.7821 0.707182 20.908 0.537033 21.0674C0.366887 21.2269 0.231816 21.4165 0.139638 21.6256C0.0474599 21.8348 0 22.0591 0 22.2857C0 22.5121 0.0474599 22.7365 0.139638 22.9457C0.231816 23.1548 0.366887 23.3444 0.537033 23.5039C0.707182 23.6633 0.90903 23.7892 1.13092 23.8743C1.3528 23.9595 1.59032 24.0021 1.82974 23.9999H48.2064C48.6837 23.9955 49.1398 23.8128 49.4757 23.4918C49.8115 23.1709 50 22.7374 50 22.2857C50 21.8339 49.8115 21.4004 49.4757 21.0795C49.1398 20.7584 48.6837 20.5758 48.2064 20.5714Z" fill="url(#paint1_linear)"/>
<defs>
<linearGradient id="paint0_linear" x1="8.71387" y1="8.57142" x2="41.3223" y2="8.57142" gradientUnits="userSpaceOnUse">
<stop stop-color="#DD1B60"/>
<stop offset="0.243" stop-color="#DE1D5B"/>
<stop offset="0.495" stop-color="#E2254F"/>
<stop offset="0.751" stop-color="#EA313A"/>
<stop offset="1" stop-color="#F4431F"/>
</linearGradient>
<linearGradient id="paint1_linear" x1="0" y1="15.4286" x2="50" y2="15.4286" gradientUnits="userSpaceOnUse">
<stop stop-color="#DD1B60"/>
<stop offset="0.243" stop-color="#DE1D5B"/>
<stop offset="0.495" stop-color="#E2254F"/>
<stop offset="0.751" stop-color="#EA313A"/>
<stop offset="1" stop-color="#F4431F"/>
</linearGradient>
</defs>
</svg>
